# xmcd
#
# Track frame offsets:
#	150
#	15471
#	31893
#	42490
#	53099
#	72493
#	90446
#	106827
#	118287
#	137864
#	148356
#	162799
#	179573
#	192298
#	213992
#	227249
#	243559
#	255051
#	275376
#	295432
#	308526
#	320226
#
# Disc length: 4480 seconds
#
# Revision: 0
# Processed by: cddbd v1.4PL0 Copyright (c) Steve Scherf et al.
# Submitted via: audiograbber 1.80
#
DISCID=48117e16
DTITLE=Машина времени - Машина времени II
DYEAR=1900
DGENRE=
TTITLE0=Старый корабль
TTITLE1=Знаю Только Я
TTITLE2=Она Идет По Жизни Смеясь
TTITLE3=Кошка. Которя Гуляет Сама По Себе
TTITLE4=Барьер
TTITLE5=Герои Вчерашних Дней
TTITLE6=Спускаясь К Великой Реке
TTITLE7=Я Дам Тебе (Знать)
TTITLE8=Старые Песни
TTITLE9=Помоги
TTITLE10=Замок В Небе
TTITLE11=Песня Про Миллионера
TTITLE12=Продавец Счастья
TTITLE13=В Круге Чистой Воды
TTITLE14=Избавленье
TTITLE15=Полный Штиль
TTITLE16=Гимн Забору
TTITLE17=Белый День
TTITLE18=Посвящение Стиву Уондеру
TTITLE19=Шок
TTITLE20=Телега
TTITLE21=В Добрый Час
EXTD=
EXTT0=
EXTT1=
EXTT2=
EXTT3=
EXTT4=
EXTT5=
EXTT6=
EXTT7=
EXTT8=
EXTT9=
EXTT10=
EXTT11=
EXTT12=
EXTT13=
EXTT14=
EXTT15=
EXTT16=
EXTT17=
EXTT18=
EXTT19=
EXTT20=
EXTT21=
PLAYORDER=
